<svg width="35" height="32" viewBox="0 0 35 32" fill="none" xmlns="http://www.w3.org/2000/svg">
<mask id="path-1-outside-1_82_29" maskUnits="userSpaceOnUse" x="0.969604" y="4.84612" width="33" height="20" fill="black">
<rect fill="white" x="0.969604" y="4.84612" width="33" height="20"/>
<path d="M13.0914 23.6359C13.0407 23.6352 12.9906 23.6266 12.9433 23.6103C11.8201 23.6088 10.697 23.5943 9.57418 23.5668C8.76205 23.549 8.00848 23.5327 7.13607 23.5327C5.7664 23.5314 4.45322 23.0408 3.48464 22.1683C2.51606 21.2959 1.9712 20.113 1.9696 18.879C1.9696 17.3242 2.80499 15.9059 4.21825 15.0378C4.10319 14.5299 4.04491 14.0129 4.04428 13.4946C4.04428 9.27775 7.8526 5.84612 12.5351 5.84612C14.0684 5.84747 15.5729 6.22209 16.8894 6.93036C18.2058 7.63862 19.2854 8.65421 20.0139 9.86974C20.4933 9.42705 21.0665 9.07566 21.6996 8.83642C22.3326 8.59719 23.0126 8.47498 23.6991 8.47706C24.4839 8.47766 25.2583 8.63917 25.9636 8.94937C26.6689 9.25957 27.2865 9.71031 27.7698 10.2675C28.253 10.8246 28.5892 11.4735 28.7528 12.165C28.9163 12.8566 28.9031 13.5726 28.7139 14.2588C29.7977 14.534 30.7521 15.1207 31.4317 15.9295C32.1114 16.7383 32.4792 17.725 32.4792 18.7394C32.4792 21.3059 30.1617 23.3946 27.3127 23.3946C25.9847 23.3946 22.9696 23.4566 20.0544 23.5171C17.1116 23.5792 14.3324 23.6359 13.0914 23.6359ZM12.5351 6.56844C8.29527 6.56844 4.84608 9.67499 4.84608 13.4946C4.84608 14.0431 4.91842 14.5901 5.06052 15.12C5.08043 15.1945 5.07347 15.2728 5.04064 15.3436C5.00781 15.4143 4.95082 15.4738 4.87795 15.5134C4.23259 15.8613 3.69889 16.3546 3.32938 16.9447C2.95987 17.5349 2.76727 18.2015 2.77054 18.879C2.77191 19.9214 3.23222 20.9208 4.05048 21.6578C4.86875 22.3948 5.97812 22.8093 7.13521 22.8103C8.01451 22.8103 8.77411 22.8266 9.59313 22.8445C10.5448 22.8646 11.5774 22.8871 12.9777 22.8871C13.0284 22.8878 13.0785 22.8964 13.1259 22.9128C14.3772 22.9112 17.2528 22.8522 20.0346 22.7948C22.955 22.7343 25.9744 22.6722 27.3119 22.6722C28.4692 22.671 29.5787 22.2562 30.397 21.5189C31.2152 20.7816 31.6754 19.782 31.6765 18.7394C31.6768 17.8249 31.3231 16.939 30.6764 16.2342C30.0297 15.5294 29.1304 15.0498 28.1335 14.8779C28.0772 14.8683 28.0238 14.8478 27.9771 14.818C27.9303 14.7881 27.8912 14.7495 27.8624 14.7049C27.8337 14.6602 27.8159 14.6105 27.8104 14.5591C27.8049 14.5077 27.8117 14.4558 27.8303 14.407C28.0546 13.8148 28.1189 13.1829 28.0179 12.5639C27.9169 11.9448 27.6536 11.3563 27.2497 10.8473C26.8458 10.3383 26.313 9.92331 25.6955 9.63685C25.078 9.35039 24.3936 9.20069 23.6991 9.20017C23.0298 9.19867 22.3692 9.33663 21.7689 9.60326C21.1686 9.86989 20.6449 10.258 20.2387 10.7371C20.1967 10.787 20.1409 10.8262 20.077 10.8507C20.013 10.8752 19.943 10.8842 19.874 10.8768C19.805 10.8694 19.7393 10.8459 19.6835 10.8087C19.6277 10.7714 19.5836 10.7216 19.5557 10.6642C18.9472 9.44522 17.961 8.41034 16.7157 7.68382C15.4703 6.9573 14.0187 6.57001 12.5351 6.56844Z"/>
</mask>
<path d="M13.0914 23.6359C13.0407 23.6352 12.9906 23.6266 12.9433 23.6103C11.8201 23.6088 10.697 23.5943 9.57418 23.5668C8.76205 23.549 8.00848 23.5327 7.13607 23.5327C5.7664 23.5314 4.45322 23.0408 3.48464 22.1683C2.51606 21.2959 1.9712 20.113 1.9696 18.879C1.9696 17.3242 2.80499 15.9059 4.21825 15.0378C4.10319 14.5299 4.04491 14.0129 4.04428 13.4946C4.04428 9.27775 7.8526 5.84612 12.5351 5.84612C14.0684 5.84747 15.5729 6.22209 16.8894 6.93036C18.2058 7.63862 19.2854 8.65421 20.0139 9.86974C20.4933 9.42705 21.0665 9.07566 21.6996 8.83642C22.3326 8.59719 23.0126 8.47498 23.6991 8.47706C24.4839 8.47766 25.2583 8.63917 25.9636 8.94937C26.6689 9.25957 27.2865 9.71031 27.7698 10.2675C28.253 10.8246 28.5892 11.4735 28.7528 12.165C28.9163 12.8566 28.9031 13.5726 28.7139 14.2588C29.7977 14.534 30.7521 15.1207 31.4317 15.9295C32.1114 16.7383 32.4792 17.725 32.4792 18.7394C32.4792 21.3059 30.1617 23.3946 27.3127 23.3946C25.9847 23.3946 22.9696 23.4566 20.0544 23.5171C17.1116 23.5792 14.3324 23.6359 13.0914 23.6359ZM12.5351 6.56844C8.29527 6.56844 4.84608 9.67499 4.84608 13.4946C4.84608 14.0431 4.91842 14.5901 5.06052 15.12C5.08043 15.1945 5.07347 15.2728 5.04064 15.3436C5.00781 15.4143 4.95082 15.4738 4.87795 15.5134C4.23259 15.8613 3.69889 16.3546 3.32938 16.9447C2.95987 17.5349 2.76727 18.2015 2.77054 18.879C2.77191 19.9214 3.23222 20.9208 4.05048 21.6578C4.86875 22.3948 5.97812 22.8093 7.13521 22.8103C8.01451 22.8103 8.77411 22.8266 9.59313 22.8445C10.5448 22.8646 11.5774 22.8871 12.9777 22.8871C13.0284 22.8878 13.0785 22.8964 13.1259 22.9128C14.3772 22.9112 17.2528 22.8522 20.0346 22.7948C22.955 22.7343 25.9744 22.6722 27.3119 22.6722C28.4692 22.671 29.5787 22.2562 30.397 21.5189C31.2152 20.7816 31.6754 19.782 31.6765 18.7394C31.6768 17.8249 31.3231 16.939 30.6764 16.2342C30.0297 15.5294 29.1304 15.0498 28.1335 14.8779C28.0772 14.8683 28.0238 14.8478 27.9771 14.818C27.9303 14.7881 27.8912 14.7495 27.8624 14.7049C27.8337 14.6602 27.8159 14.6105 27.8104 14.5591C27.8049 14.5077 27.8117 14.4558 27.8303 14.407C28.0546 13.8148 28.1189 13.1829 28.0179 12.5639C27.9169 11.9448 27.6536 11.3563 27.2497 10.8473C26.8458 10.3383 26.313 9.92331 25.6955 9.63685C25.078 9.35039 24.3936 9.20069 23.6991 9.20017C23.0298 9.19867 22.3692 9.33663 21.7689 9.60326C21.1686 9.86989 20.6449 10.258 20.2387 10.7371C20.1967 10.787 20.1409 10.8262 20.077 10.8507C20.013 10.8752 19.943 10.8842 19.874 10.8768C19.805 10.8694 19.7393 10.8459 19.6835 10.8087C19.6277 10.7714 19.5836 10.7216 19.5557 10.6642C18.9472 9.44522 17.961 8.41034 16.7157 7.68382C15.4703 6.9573 14.0187 6.57001 12.5351 6.56844Z" fill="#F8F8F8"/>
<path d="M13.0914 23.6359L13.0792 24.6359H13.0914V23.6359ZM12.9433 23.6103L13.2693 22.6649L13.1115 22.6105L12.9446 22.6103L12.9433 23.6103ZM9.57418 23.5668L9.59867 22.5671L9.59615 22.567L9.57418 23.5668ZM7.13607 23.5327L7.13517 24.5327H7.13607V23.5327ZM1.9696 18.879H0.969604L0.969605 18.8803L1.9696 18.879ZM4.21825 15.0378L4.74169 15.8898L5.35173 15.5151L5.19353 14.8168L4.21825 15.0378ZM4.04428 13.4946H3.04428L3.04429 13.4958L4.04428 13.4946ZM12.5351 5.84612L12.5359 4.84612H12.5351V5.84612ZM20.0139 9.86974L19.1561 10.3838L19.7885 11.439L20.6923 10.6044L20.0139 9.86974ZM23.6991 8.47706L23.696 9.47706L23.6983 9.47706L23.6991 8.47706ZM28.7139 14.2588L27.7499 13.9931L27.4788 14.9768L28.4678 15.228L28.7139 14.2588ZM32.4792 18.7394L31.4792 18.7394V18.7394H32.4792ZM20.0544 23.5171L20.0336 22.5174L20.0333 22.5174L20.0544 23.5171ZM12.5351 6.56844L12.5361 5.56844H12.5351V6.56844ZM5.06052 15.12L6.02666 14.862L6.0264 14.861L5.06052 15.12ZM4.87795 15.5134L5.3525 16.3936L5.35525 16.3921L4.87795 15.5134ZM2.77054 18.879L3.77054 18.8777L3.77053 18.8742L2.77054 18.879ZM7.13521 22.8103L7.13432 23.8103H7.13521V22.8103ZM9.59313 22.8445L9.57135 23.8442L9.57194 23.8443L9.59313 22.8445ZM12.9777 22.8871L12.9899 21.8871H12.9777V22.8871ZM13.1259 22.9128L12.7998 23.8581L12.9589 23.913L13.1271 23.9128L13.1259 22.9128ZM20.0346 22.7948L20.0552 23.7946L20.0553 23.7946L20.0346 22.7948ZM27.3119 22.6722V23.6722H27.3129L27.3119 22.6722ZM31.6765 18.7394L32.6765 18.7405V18.7397L31.6765 18.7394ZM28.1335 14.8779L28.3033 13.8925L28.3023 13.8923L28.1335 14.8779ZM27.8303 14.407L28.7643 14.7642L28.7655 14.7611L27.8303 14.407ZM23.6991 9.20017L23.6968 10.2002L23.6983 10.2002L23.6991 9.20017ZM20.2387 10.7371L19.4759 10.0905L19.4737 10.0931L20.2387 10.7371ZM19.5557 10.6642L20.4551 10.2269L20.4504 10.2176L19.5557 10.6642ZM13.1036 22.6359C13.1585 22.6366 13.2144 22.6459 13.2693 22.6649L12.6172 24.5556C12.7668 24.6072 12.923 24.6339 13.0792 24.6358L13.1036 22.6359ZM12.9446 22.6103C11.8291 22.6088 10.7137 22.5944 9.59867 22.5671L9.54969 24.5665C10.6802 24.5942 11.8111 24.6088 12.942 24.6103L12.9446 22.6103ZM9.59615 22.567C8.78452 22.5492 8.02082 22.5327 7.13607 22.5327V24.5327C7.99615 24.5327 8.73958 24.5487 9.55221 24.5666L9.59615 22.567ZM7.13697 22.5327C6.00047 22.5316 4.92912 22.1236 4.15391 21.4253L2.81537 22.9114C3.97732 23.958 5.53234 24.5312 7.13517 24.5327L7.13697 22.5327ZM4.15391 21.4253C3.38212 20.7301 2.97081 19.8112 2.9696 18.8778L0.969605 18.8803C0.97159 20.4147 1.65 21.8617 2.81537 22.9114L4.15391 21.4253ZM2.9696 18.879C2.9696 17.7023 3.59754 16.5927 4.74169 15.8898L3.69481 14.1857C2.01243 15.2192 0.969604 16.9461 0.969604 18.879H2.9696ZM5.19353 14.8168C5.09473 14.3807 5.04482 13.9374 5.04428 13.4934L3.04429 13.4958C3.045 14.0884 3.11164 14.6791 3.24297 15.2587L5.19353 14.8168ZM5.04428 13.4946C5.04428 9.92566 8.30415 6.84612 12.5351 6.84612V4.84612C7.40106 4.84612 3.04428 8.62984 3.04428 13.4946H5.04428ZM12.5342 6.84611C13.9069 6.84733 15.2483 7.18301 16.4156 7.811L17.3631 6.04972C15.8975 5.26118 14.23 4.84762 12.5359 4.84612L12.5342 6.84611ZM16.4156 7.811C17.5824 8.43878 18.5254 9.33144 19.1561 10.3838L20.8716 9.35566C20.0454 7.97698 18.8292 6.83847 17.3631 6.04972L16.4156 7.811ZM20.6923 10.6044C21.0738 10.2521 21.5357 9.96739 22.0531 9.77185L21.3461 7.90099C20.5974 8.18394 19.9128 8.60197 19.3355 9.13506L20.6923 10.6044ZM22.0531 9.77185C22.5705 9.5763 23.1295 9.47534 23.696 9.47706L23.7021 7.47707C22.8956 7.47462 22.0947 7.61807 21.3461 7.90099L22.0531 9.77185ZM23.6983 9.47706C24.3474 9.47756 24.9848 9.61131 25.561 9.86475L26.3662 8.034C25.5319 7.66704 24.6204 7.47776 23.6998 7.47706L23.6983 9.47706ZM25.561 9.86475C26.1371 10.1181 26.6324 10.4823 27.0144 10.9227L28.5252 9.61222C27.9407 8.93832 27.2007 8.40102 26.3662 8.034L25.561 9.86475ZM27.0144 10.9227C27.3959 11.3626 27.6546 11.8669 27.7796 12.3952L29.7259 11.9348C29.5237 11.0801 29.1101 10.2866 28.5252 9.61222L27.0144 10.9227ZM27.7796 12.3952C27.9045 12.923 27.8945 13.4685 27.7499 13.9931L29.678 14.5245C29.9117 13.6766 29.9282 12.7901 29.7259 11.9348L27.7796 12.3952ZM28.4678 15.228C29.3612 15.4549 30.1294 15.934 30.6662 16.5728L32.1973 15.2861C31.3748 14.3073 30.2343 13.6132 28.9601 13.2896L28.4678 15.228ZM30.6662 16.5728C31.2012 17.2096 31.4792 17.9707 31.4792 18.7394L33.4792 18.7394C33.4792 17.4792 33.0216 16.267 32.1973 15.2861L30.6662 16.5728ZM31.4792 18.7394C31.4792 20.6582 29.7099 22.3946 27.3127 22.3946V24.3946C30.6134 24.3946 33.4792 21.9536 33.4792 18.7394H31.4792ZM27.3127 22.3946C25.9714 22.3946 22.9419 22.457 20.0336 22.5174L20.0751 24.5169C22.9973 24.4563 25.9981 24.3946 27.3127 24.3946V22.3946ZM20.0333 22.5174C17.0841 22.5796 14.319 22.6359 13.0914 22.6359V24.6359C14.3459 24.6359 17.1391 24.5789 20.0755 24.5169L20.0333 22.5174ZM12.5351 5.56844C7.84388 5.56844 3.84608 9.02695 3.84608 13.4946H5.84608C5.84608 10.323 8.74666 7.56844 12.5351 7.56844V5.56844ZM3.84608 13.4946C3.84608 14.1309 3.92999 14.7649 4.09465 15.379L6.0264 14.861C5.90686 14.4152 5.84608 13.9553 5.84608 13.4946H3.84608ZM4.09439 15.378C4.05316 15.2236 4.06896 15.0618 4.13358 14.9226L5.94769 15.7646C6.07797 15.4839 6.10771 15.1654 6.02666 14.862L4.09439 15.378ZM4.13358 14.9226C4.19707 14.7858 4.2976 14.6906 4.40064 14.6346L5.35525 16.3921C5.60405 16.257 5.81854 16.0428 5.94769 15.7646L4.13358 14.9226ZM4.40339 14.6331C3.61391 15.0588 2.94822 15.6692 2.48182 16.414L4.17695 17.4754C4.44957 17.04 4.85127 16.6638 5.3525 16.3936L4.40339 14.6331ZM2.48182 16.414C2.01476 17.16 1.76635 18.0115 1.77055 18.8839L3.77053 18.8742C3.7682 18.3915 3.90499 17.9098 4.17695 17.4754L2.48182 16.414ZM1.77054 18.8804C1.7723 20.2232 2.36617 21.4866 3.38123 22.4008L4.71974 20.9148C4.09827 20.355 3.77151 19.6197 3.77054 18.8777L1.77054 18.8804ZM3.38123 22.4008C4.39286 23.312 5.74407 23.8091 7.13432 23.8103L7.13609 21.8103C6.21218 21.8095 5.34463 21.4776 4.71974 20.9148L3.38123 22.4008ZM7.13521 23.8103C8.00227 23.8103 8.75181 23.8264 9.57135 23.8442L9.61491 21.8447C8.7964 21.8269 8.02675 21.8103 7.13521 21.8103V23.8103ZM9.57194 23.8443C10.524 23.8644 11.5659 23.8871 12.9777 23.8871V21.8871C11.5889 21.8871 10.5655 21.8649 9.61432 21.8447L9.57194 23.8443ZM12.9656 23.8871C12.9107 23.8864 12.8548 23.8771 12.7998 23.8581L13.4519 21.9674C13.3023 21.9158 13.1461 21.8891 12.9899 21.8872L12.9656 23.8871ZM13.1271 23.9128C14.3909 23.9112 17.28 23.8519 20.0552 23.7946L20.0139 21.795C17.2256 21.8526 14.3635 21.9112 13.1246 21.9128L13.1271 23.9128ZM20.0553 23.7946C22.9826 23.7339 25.9877 23.6722 27.3119 23.6722V21.6722C25.9611 21.6722 22.9274 21.7347 20.0138 21.795L20.0553 23.7946ZM27.3129 23.6722C28.7034 23.6708 30.0548 23.1733 31.0664 22.2618L29.7276 20.776C29.1026 21.3391 28.235 21.6713 27.3108 21.6722L27.3129 23.6722ZM31.0664 22.2618C32.0814 21.3472 32.6751 20.0835 32.6765 18.7405L30.6765 18.7383C30.6757 19.4805 30.349 20.216 29.7276 20.776L31.0664 22.2618ZM32.6765 18.7397C32.6769 17.5624 32.2207 16.4382 31.4132 15.5581L29.9396 16.9103C30.4255 17.4399 30.6767 18.0875 30.6765 18.7391L32.6765 18.7397ZM31.4132 15.5581C30.608 14.6805 29.5049 14.0996 28.3033 13.8925L27.9636 15.8634C28.756 16 29.4514 16.3783 29.9396 16.9103L31.4132 15.5581ZM28.3023 13.8923C28.3734 13.9045 28.4463 13.9311 28.5152 13.9751L27.4389 15.6608C27.6014 15.7646 27.7809 15.8321 27.9646 15.8636L28.3023 13.8923ZM28.5152 13.9751C28.5844 14.0193 28.6506 14.0817 28.7033 14.1636L27.0216 15.2461C27.1318 15.4173 27.2762 15.5569 27.4389 15.6608L28.5152 13.9751ZM28.7033 14.1636C28.7563 14.246 28.793 14.3443 28.8046 14.4519L26.8162 14.6663C26.8388 14.8767 26.911 15.0744 27.0216 15.2461L28.7033 14.1636ZM28.8046 14.4519C28.8163 14.5597 28.8016 14.6669 28.7643 14.7642L26.8963 14.0497C26.8217 14.2447 26.7935 14.4557 26.8162 14.6663L28.8046 14.4519ZM28.7655 14.7611C29.0513 14.0064 29.1344 13.197 29.0049 12.4029L27.031 12.7249C27.1034 13.1689 27.0579 13.6232 26.8951 14.0528L28.7655 14.7611ZM29.0049 12.4029C28.8754 11.6093 28.539 10.8634 28.0331 10.2258L26.4663 11.4689C26.7681 11.8493 26.9585 12.2804 27.031 12.7249L29.0049 12.4029ZM28.0331 10.2258C27.5276 9.58871 26.8684 9.07858 26.1163 8.72971L25.2747 10.544C25.7576 10.768 26.164 11.0878 26.4663 11.4689L28.0331 10.2258ZM26.1163 8.72971C25.3645 8.38092 24.5364 8.2008 23.6998 8.20017L23.6983 10.2002C24.2508 10.2006 24.7916 10.3199 25.2747 10.544L26.1163 8.72971ZM23.7013 8.20017C22.8942 8.19837 22.0942 8.36455 21.363 8.68935L22.1748 10.5172C22.6441 10.3087 23.1654 10.199 23.6968 10.2002L23.7013 8.20017ZM21.363 8.68935C20.6316 9.01422 19.9839 9.49125 19.4759 10.0905L21.0015 11.3838C21.3059 11.0247 21.7056 10.7256 22.1748 10.5172L21.363 8.68935ZM19.4737 10.0931C19.5463 10.0069 19.6334 9.94973 19.7193 9.91682L20.4346 11.7845C20.6485 11.7026 20.8471 11.5672 21.0037 11.3812L19.4737 10.0931ZM19.7193 9.91682C19.8051 9.88398 19.8942 9.87327 19.9802 9.88246L19.7678 11.8712C19.9919 11.8951 20.221 11.8664 20.4346 11.7845L19.7193 9.91682ZM19.9802 9.88246C20.0662 9.89165 20.1557 9.92151 20.2389 9.97707L19.1281 11.6402C19.3229 11.7704 19.5438 11.8472 19.7678 11.8712L19.9802 9.88246ZM20.2389 9.97707C20.3225 10.0329 20.4012 10.1161 20.455 10.2269L18.6564 11.1015C18.7661 11.327 18.9328 11.5098 19.1281 11.6402L20.2389 9.97707ZM20.4504 10.2176C19.7498 8.81411 18.6227 7.63864 17.2196 6.82006L16.2118 8.54758C17.2993 9.18204 18.1446 10.0763 18.661 11.1109L20.4504 10.2176ZM17.2196 6.82006C15.817 6.00183 14.1911 5.57019 12.5361 5.56844L12.534 7.56844C13.8463 7.56983 15.1237 7.91277 16.2118 8.54758L17.2196 6.82006Z" fill="white" mask="url(#path-1-outside-1_82_29)"/>
<path d="M15.3797 16.6919C15.3989 16.6918 15.418 16.6956 15.4354 16.703C15.4529 16.7103 15.4682 16.7211 15.4804 16.7346L15.7586 17.0046C15.5464 17.2247 15.2837 17.4007 14.9887 17.5205C14.6873 17.6436 14.3227 17.7052 13.8949 17.7052C13.5246 17.7052 13.1882 17.6472 12.8856 17.5314C12.5917 17.4205 12.3274 17.2544 12.1105 17.0441C11.8896 16.8263 11.7202 16.5703 11.6127 16.2916C11.4914 15.9819 11.4316 15.6555 11.4362 15.3272C11.4362 14.9765 11.4976 14.6547 11.6205 14.362C11.7299 14.0827 11.9039 13.8276 12.1309 13.6133C12.3579 13.3991 12.6327 13.2306 12.9373 13.1191C13.2637 13.001 13.6129 12.9422 13.9647 12.946C14.3321 12.946 14.6568 12.9991 14.9387 13.1051C15.2195 13.2106 15.467 13.3544 15.6811 13.5365L15.4503 13.8259C15.4367 13.8475 15.4175 13.8659 15.3943 13.8794C15.3664 13.894 15.3345 13.9013 15.3022 13.9004C15.2585 13.9004 15.2057 13.8791 15.1437 13.8367C14.9571 13.7083 14.7457 13.6123 14.5202 13.5535C14.3384 13.5074 14.15 13.4859 13.9613 13.4899C13.6948 13.4899 13.4505 13.5318 13.2284 13.6156C13.0106 13.6969 12.8156 13.8206 12.6574 13.9779C12.4977 14.1357 12.3734 14.3284 12.2845 14.556C12.1926 14.804 12.1477 15.0642 12.1518 15.3256C12.1518 15.6153 12.198 15.8739 12.2905 16.1015C12.3823 16.3291 12.5087 16.5212 12.6694 16.6779C12.9106 16.913 13.0174 16.9549 13.2352 17.0372C13.4534 17.1194 13.6885 17.1605 13.9406 17.1605C14.0945 17.1605 14.2331 17.1522 14.3566 17.1357C14.4734 17.121 14.5883 17.0955 14.6993 17.0597C14.8018 17.0259 14.8997 16.9819 14.9913 16.9285C15.0814 16.8747 15.1713 16.8114 15.2608 16.7385C15.2922 16.7096 15.3348 16.6929 15.3797 16.6919ZM21.2437 15.3279C21.2437 15.676 21.1823 15.9962 21.0594 16.2885C20.9433 16.5676 20.7668 16.8231 20.5401 17.0403C20.313 17.2527 20.0386 17.4195 19.7349 17.5298C19.4037 17.6475 19.0505 17.7062 18.6945 17.7029C18.3144 17.7029 17.9682 17.6452 17.6559 17.5298C17.3528 17.4193 17.079 17.2525 16.8524 17.0403C16.6238 16.8244 16.447 16.5685 16.3331 16.2885C16.2078 15.9809 16.1454 15.6555 16.1487 15.3279C16.1487 14.9793 16.2102 14.6591 16.3331 14.3674C16.4565 14.0762 16.6296 13.8251 16.8524 13.6141C17.0788 13.401 17.3526 13.2333 17.6559 13.1222C17.9857 13.002 18.3388 12.9423 18.6945 12.9468C19.0752 12.9468 19.422 13.0053 19.7349 13.1222C20.0478 13.2391 20.3162 13.403 20.5401 13.6141C20.764 13.8251 20.9371 14.0762 21.0594 14.3674C21.1823 14.6591 21.2437 14.9793 21.2437 15.3279ZM20.5255 15.3279C20.5255 15.0414 20.4821 14.7848 20.3954 14.5583C20.3181 14.3454 20.1929 14.1492 20.0277 13.9818C19.8677 13.8238 19.6706 13.7 19.4507 13.6195C19.2097 13.5328 18.9522 13.4895 18.6928 13.4922C18.4166 13.4922 18.1654 13.5347 17.9392 13.6195C17.719 13.6999 17.5216 13.8237 17.3613 13.9818C17.2012 14.1385 17.0777 14.3307 16.991 14.5583C16.9049 14.7854 16.8616 15.0419 16.861 15.3279C16.861 15.6135 16.9043 15.8695 16.991 16.096C17.0771 16.3216 17.2006 16.5132 17.3613 16.671C17.521 16.8282 17.7136 16.9482 17.9392 17.031C18.1654 17.1147 18.4166 17.1566 18.6928 17.1566C18.9713 17.1566 19.2239 17.1147 19.4507 17.031C19.6763 16.9482 19.8686 16.8282 20.0277 16.671C20.1862 16.5132 20.3087 16.3216 20.3954 16.096C20.4827 15.8695 20.526 15.6135 20.5255 15.3279ZM23.6569 19.4974C23.6971 19.4974 23.7295 19.5083 23.7542 19.53C23.766 19.541 23.7752 19.554 23.7815 19.5683C23.7877 19.5825 23.7907 19.5977 23.7904 19.613V19.8179H21.7803V19.7022C21.7816 19.6479 21.8063 19.5962 21.8492 19.5579L22.8137 18.6851C22.8935 18.6116 22.9665 18.541 23.0325 18.4733C23.0979 18.406 23.1539 18.338 23.2004 18.2692C23.2464 18.201 23.282 18.1319 23.3072 18.0621C23.3321 17.9892 23.3448 17.9133 23.3451 17.8371C23.3464 17.7657 23.3321 17.6948 23.3029 17.6284C23.2781 17.572 23.2395 17.5213 23.19 17.4802C23.1405 17.4391 23.0814 17.4086 23.017 17.391C22.8788 17.3512 22.7302 17.3517 22.5924 17.3925C22.4694 17.43 22.3646 17.5049 22.2961 17.6043C22.2627 17.6548 22.2385 17.7098 22.2247 17.7672C22.208 17.8112 22.1853 17.8407 22.1566 17.8557C22.1279 17.8707 22.0874 17.8748 22.0352 17.8681L21.8397 17.8371C21.8592 17.714 21.8977 17.6046 21.9551 17.5089C22.0114 17.4142 22.0828 17.3343 22.1695 17.2691C22.2557 17.2055 22.3538 17.1566 22.4641 17.1225C22.5749 17.0894 22.6949 17.0729 22.8241 17.0729C22.9515 17.0729 23.0704 17.0897 23.1806 17.1233C23.2866 17.153 23.3843 17.2028 23.4671 17.2695C23.5498 17.3362 23.6157 17.4181 23.6603 17.5097C23.7079 17.6101 23.7314 17.7185 23.7292 17.8278C23.7292 17.9291 23.7126 18.0228 23.6793 18.1086C23.6457 18.1957 23.6 18.2786 23.5432 18.3554C23.4858 18.434 23.4195 18.5105 23.3442 18.585C23.269 18.6595 23.1895 18.7347 23.1057 18.8108L22.3108 19.5409C22.367 19.5274 22.4239 19.5166 22.4813 19.5083C22.5387 19.5 22.5941 19.4959 22.6475 19.4959H23.6569V19.4974Z" fill="#F8F8F8"/>
</svg>
