<svg width="37" height="37" viewBox="0 0 37 37" fill="none" xmlns="http://www.w3.org/2000/svg">
<path d="M13.0656 26.9021C13.6309 26.3368 14.2671 25.8743 14.9742 25.5146C15.6813 25.1549 16.4326 24.9108 17.2281 24.7823C17.0997 25.2705 16.9969 25.7587 16.9198 26.2469C16.8427 26.7351 16.8042 27.2361 16.8042 27.75C16.8042 28.3667 16.8494 28.9705 16.9398 29.5614C17.0303 30.1524 17.1778 30.7177 17.3823 31.2573L13.0656 26.9021ZM9.78958 23.6646L6.55208 20.35C8.14514 18.7569 9.96944 17.5364 12.025 16.6885C14.0806 15.8406 16.2389 15.4167 18.5 15.4167C19.759 15.4167 20.9924 15.5518 22.2 15.8221C23.4076 16.0924 24.5639 16.484 25.6687 16.9969C24.5382 17.2024 23.4914 17.575 22.5284 18.1146C21.5653 18.6542 20.6979 19.3222 19.926 20.1187C19.6948 20.093 19.4574 20.0735 19.2138 20.0602C18.9702 20.0468 18.7323 20.0406 18.5 20.0417C16.8556 20.0417 15.282 20.3567 13.7794 20.9867C12.2768 21.6167 10.9469 22.5094 9.78958 23.6646ZM3.2375 17.1125L0 13.875C2.44097 11.3826 5.26119 9.47456 8.46067 8.15078C11.6601 6.82701 15.0066 6.16563 18.5 6.16666C21.9934 6.16769 25.3404 6.82957 28.5409 8.15232C31.7414 9.47507 34.5611 11.3826 37 13.875L33.7625 17.1125C31.7326 15.0826 29.4006 13.5219 26.7664 12.4304C24.1322 11.3389 21.3767 10.7927 18.5 10.7917C15.6232 10.7906 12.8673 11.3369 10.232 12.4304C7.59682 13.524 5.26531 15.0847 3.2375 17.1125ZM29.2917 20.0417L29.7542 22.3542C30.0625 22.4826 30.3518 22.6178 30.6221 22.7596C30.8924 22.9014 31.1684 23.0746 31.45 23.2792L33.6854 22.5854L35.2271 25.2062L33.4542 26.7479C33.5056 27.0562 33.5312 27.3903 33.5312 27.75C33.5312 28.1097 33.5056 28.4437 33.4542 28.7521L35.2271 30.2937L33.6854 32.9146L31.45 32.2208C31.1674 32.4264 30.8914 32.6001 30.6221 32.7419C30.3528 32.8837 30.0635 33.0184 29.7542 33.1458L29.2917 35.4583H26.2083L25.7458 33.1458C25.4375 33.0174 25.1487 32.8827 24.8794 32.7419C24.6101 32.6011 24.3337 32.4274 24.05 32.2208L21.8146 32.9146L20.2729 30.2937L22.0458 28.7521C21.9944 28.4437 21.9688 28.1097 21.9688 27.75C21.9688 27.3903 21.9944 27.0562 22.0458 26.7479L20.2729 25.2062L21.8146 22.5854L24.05 23.2792C24.3326 23.0736 24.6091 22.9004 24.8794 22.7596C25.1497 22.6188 25.4385 22.4837 25.7458 22.3542L26.2083 20.0417H29.2917ZM27.75 24.6667C26.9021 24.6667 26.1765 24.9688 25.5732 25.5732C24.9699 26.1775 24.6677 26.9031 24.6667 27.75C24.6656 28.5969 24.9678 29.323 25.5732 29.9284C26.1785 30.5337 26.9041 30.8354 27.75 30.8333C28.5959 30.8313 29.322 30.5296 29.9284 29.9284C30.5348 29.3271 30.8364 28.601 30.8333 27.75C30.8302 26.899 30.5286 26.1734 29.9284 25.5732C29.3282 24.9729 28.602 24.6708 27.75 24.6667Z" fill="white"/>
</svg>
