<svg width="24" height="31" viewBox="0 0 24 31" fill="none" xmlns="http://www.w3.org/2000/svg">
<path d="M22.4612 15.6922C19.98 8.51702 12.6775 0.85933 12.3062 0.472433C12.2483 0.416614 12.1777 0.372032 12.099 0.341529C12.0204 0.311026 11.9353 0.295273 11.8494 0.295273C11.7634 0.295273 11.6784 0.311026 11.5997 0.341529C11.521 0.372032 11.4505 0.416614 11.3925 0.472433C11.0212 0.85933 3.7175 8.51592 1.235 15.6922C0.726247 17.1639 0.403748 18.6181 0.403748 19.9821C0.403748 25.5306 5.53875 30.0447 11.8487 30.0447C18.1587 30.0447 23.2912 25.5306 23.2912 19.9821C23.2925 18.6181 22.97 17.165 22.4612 15.6922ZM11.85 28.994C6.19875 28.994 1.60125 24.9513 1.60125 19.9832C1.60125 18.6346 1.9425 17.1771 2.4875 15.6933C4.65875 9.78543 10.2162 3.43131 11.85 1.64521C13.4837 3.43131 19.0412 9.78543 21.21 15.6933C21.755 17.1782 22.0962 18.6346 22.0962 19.9832C22.0962 24.9513 17.5 28.994 11.85 28.994Z" fill="#F8F8F8"/>
<path d="M5.43502 15.6922C4.81002 17.0881 4.39252 18.4862 4.39252 19.759C4.39252 21.498 5.17815 23.1658 6.57659 24.3954C7.97502 25.6251 9.87171 26.3159 11.8494 26.3159C13.8271 26.3159 15.7238 25.6251 17.1222 24.3954C18.5206 23.1658 19.3063 21.498 19.3063 19.759C19.3063 18.4862 18.8888 17.0881 18.2638 15.6922H5.43502Z" fill="#F8F8F8"/>
</svg>
