<svg width="115" height="97" viewBox="0 0 115 97" fill="none" xmlns="http://www.w3.org/2000/svg">
<path d="M10.5017 24.6249C21.6628 14.7939 30.4793 7.02098 54.405 20.8891C65.8984 27.5479 75.1684 30.0646 82.8796 30.0515C96.3917 30.0515 105.151 22.3441 112.721 15.6787C114.021 14.519 114.829 12.8858 114.974 11.1252C115.12 9.36466 114.591 7.61517 113.501 6.24761C112.969 5.57654 112.311 5.02174 111.566 4.61602C110.822 4.21029 110.005 3.9619 109.165 3.88551C108.326 3.80913 107.479 3.90632 106.677 4.17132C105.874 4.43633 105.131 4.86377 104.493 5.42837C93.3379 15.2724 84.5151 23.0454 60.5893 9.16411C28.9779 -9.14104 14.1688 3.9013 2.27304 14.3876C0.974537 15.5482 0.167619 17.1819 0.0233133 18.9424C-0.120992 20.703 0.408658 22.452 1.5 23.8187C2.03233 24.4886 2.69024 25.0422 3.43481 25.4467C4.17938 25.8511 4.99547 26.0982 5.83479 26.1734C6.6741 26.2486 7.51959 26.1502 8.32121 25.8843C9.12283 25.6183 9.86429 25.19 10.5017 24.6249ZM104.493 38.8993C93.3379 48.7302 84.5151 56.5163 60.5893 42.6351C28.9779 24.3168 14.1688 37.3657 2.27304 47.8455C0.974537 49.0061 0.167619 50.6398 0.0233133 52.4003C-0.120992 54.1608 0.408658 55.9098 1.5 57.2766C2.03141 57.9474 2.68862 58.5021 3.43273 58.9078C4.17683 59.3134 4.99271 59.5618 5.83206 59.6382C6.6714 59.7146 7.51716 59.6174 8.31926 59.3525C9.12135 59.0876 9.86348 58.6602 10.5017 58.0958C21.6628 48.2584 30.4793 40.4854 54.405 54.347C65.8984 61.0189 75.1684 63.5225 82.8796 63.5225C96.3917 63.5225 105.151 55.8151 112.721 49.1366C114.022 47.979 114.831 46.3466 114.976 44.5866C115.122 42.8267 114.592 41.0779 113.501 39.712C112.969 39.0407 112.311 38.4857 111.566 38.08C110.821 37.6744 110.004 37.4263 109.164 37.3505C108.324 37.2747 107.478 37.3728 106.675 37.6388C105.873 37.9049 105.131 38.3335 104.493 38.8993ZM104.493 72.3637C93.3379 82.2078 84.5151 89.9807 60.5893 76.1126C28.9779 57.7943 14.1688 70.8367 2.27304 81.323C0.974537 82.4836 0.167619 84.1173 0.0233133 85.8778C-0.120992 87.6384 0.408658 89.3874 1.5 90.7541C2.0318 91.4248 2.68951 91.9791 3.4341 92.384C4.17868 92.789 4.99498 93.0364 5.83454 93.1116C6.67411 93.1868 7.51985 93.0882 8.32158 92.8217C9.1233 92.5552 9.86468 92.1263 10.5017 91.5602C21.6628 81.7293 30.4793 73.9629 54.405 87.8245C65.8984 94.4833 75.1684 97 82.8796 97C96.3917 97 105.151 89.2795 112.721 82.6141C114.021 81.4544 114.829 79.8212 114.974 78.0606C115.12 76.3 114.591 74.5505 113.501 73.183C112.967 72.5142 112.309 71.9615 111.564 71.5574C110.82 71.1532 110.004 70.9057 109.165 70.8294C108.326 70.7531 107.48 70.8495 106.678 71.113C105.875 71.3764 105.133 71.8017 104.493 72.3637Z" fill="white"/>
</svg>
