<svg width="31" height="32" viewBox="0 0 31 32" fill="none" xmlns="http://www.w3.org/2000/svg">
<path d="M3.77425 14.3693C5.24837 12.6664 7.05349 11.3032 9.07202 10.3684C11.0905 9.43364 13.2772 8.9483 15.4896 8.94403C17.7019 8.93975 19.8903 9.41662 21.9122 10.3436C23.9341 11.2705 25.7442 12.6268 27.2245 14.324C27.7876 14.9587 28.6983 14.0133 28.1377 13.3813C26.5373 11.5603 24.5848 10.1059 22.4063 9.11202C20.2277 8.11812 17.8715 7.60681 15.4896 7.61108C13.1078 7.61535 10.7532 8.13512 8.57804 9.13682C6.40283 10.1385 4.45526 11.5999 2.86105 13.4267C2.30305 14.06 3.21367 15.0053 3.77425 14.3693Z" fill="black"/>
<path d="M7.30305 17.5587C8.34325 16.3849 9.60829 15.447 11.018 14.8043C12.4277 14.1616 13.9514 13.8282 15.4925 13.8252C17.0336 13.8222 18.5585 14.1496 19.9706 14.7868C21.3826 15.424 22.6511 16.357 23.6956 17.5267C24.2601 18.16 25.172 17.2147 24.6088 16.584C23.4435 15.2916 22.0323 14.2615 20.4636 13.5581C18.8948 12.8547 17.2023 12.4932 15.4919 12.4962C13.7816 12.4992 12.0902 12.8666 10.5238 13.5755C8.95735 14.2844 7.54956 15.3195 6.38855 16.616C5.82926 17.248 6.73989 18.1947 7.30305 17.5587Z" fill="black"/>
<path d="M11.2375 20.656C11.7773 20.0437 12.4348 19.5542 13.1681 19.2187C13.9013 18.8832 14.6943 18.7091 15.4963 18.7075C16.2984 18.7058 17.0919 18.8767 17.8265 19.2092C18.561 19.5417 19.2203 20.0285 19.7625 20.6387C20.3283 21.2707 21.2389 20.3253 20.6757 19.696C20.0128 18.9632 19.2107 18.3792 18.3195 17.9805C17.4283 17.5818 16.467 17.3768 15.4957 17.3785C14.5244 17.3801 13.5638 17.5882 12.6739 17.9899C11.7839 18.3917 10.9837 18.9783 10.323 19.7133C9.76243 20.3453 10.6743 21.2907 11.2375 20.656Z" fill="black"/>
<path d="M15.4987 24.3893C16.2977 24.3893 16.9454 23.7207 16.9454 22.896C16.9454 22.0712 16.2977 21.4026 15.4987 21.4026C14.6998 21.4026 14.0521 22.0712 14.0521 22.896C14.0521 23.7207 14.6998 24.3893 15.4987 24.3893Z" fill="black"/>
</svg>
