<svg width="30" height="27" viewBox="0 0 30 27" fill="none" xmlns="http://www.w3.org/2000/svg">
<path d="M20.9662 20.7845V24.0172H18.5876V20.7845C18.5876 19.5991 17.5172 18.6293 16.209 18.6293H12.6411C9.31103 18.6293 6.69456 16.2586 6.69456 13.2414C6.69456 11.9483 7.17028 10.8707 8.0028 9.90084C5.2674 9.46981 3.12665 7.20688 3.12665 4.62067C3.12665 3.86636 3.36451 3.11205 3.60237 2.4655H6.4567C5.86205 3.00429 5.50526 3.7586 5.50526 4.62067C5.50526 6.45257 7.05135 7.85343 9.07317 7.85343H12.6411V10.0086C10.6193 10.0086 9.07317 11.4095 9.07317 13.2414C9.07317 15.0733 10.6193 16.4741 12.6411 16.4741H16.209C18.8255 16.4741 20.9662 18.4138 20.9662 20.7845ZM22.0366 9.90084C24.772 9.46981 26.9127 7.20688 26.9127 4.62067C26.9127 3.86636 26.6749 3.11205 26.437 2.4655H23.5827C24.1773 3.00429 24.5341 3.7586 24.5341 4.62067C24.5341 6.45257 22.988 7.85343 20.9662 7.85343H19.539C19.658 8.17671 19.7769 8.49998 19.7769 8.93102C19.7769 10.7629 18.2308 12.1638 16.209 12.1638V14.3189C19.539 14.3189 22.1555 16.6896 22.1555 19.7069V24.0172H24.5341V19.7069C24.5341 16.7974 22.7502 14.3189 20.0148 13.0258C21.0851 12.2715 21.7987 11.1939 22.0366 9.90084Z" fill="white"/>
</svg>
