<svg width="19" height="32" viewBox="0 0 19 32" fill="none" xmlns="http://www.w3.org/2000/svg">
<path d="M10.9583 20.6437V13.7759C10.9583 13.3948 10.8047 13.0294 10.5312 12.7599C10.2577 12.4905 9.88676 12.3391 9.49999 12.3391C9.11321 12.3391 8.74228 12.4905 8.46879 12.7599C8.1953 13.0294 8.04166 13.3948 8.04166 13.7759V20.6437C7.60084 20.8944 7.23429 21.2544 6.97846 21.688C6.72262 22.1215 6.58639 22.6135 6.58332 23.115C6.58332 23.8771 6.89061 24.608 7.43759 25.1469C7.98458 25.6858 8.72644 25.9885 9.49999 25.9885C10.2735 25.9885 11.0154 25.6858 11.5624 25.1469C12.1094 24.608 12.4167 23.8771 12.4167 23.115C12.4136 22.6135 12.2774 22.1215 12.0215 21.688C11.7657 21.2544 11.3991 20.8944 10.9583 20.6437ZM16.0625 17.3678V6.59196C16.0625 4.8772 15.3711 3.23267 14.1404 2.02015C12.9097 0.807628 11.2405 0.126442 9.49999 0.126442C7.75951 0.126442 6.09031 0.807628 4.8596 2.02015C3.62889 3.23267 2.93749 4.8772 2.93749 6.59196V17.3678C1.92955 18.4931 1.23726 19.8582 0.92909 21.3279C0.620922 22.7977 0.707556 24.3213 1.18042 25.7479C1.65329 27.1746 2.49601 28.4549 3.62521 29.4623C4.75441 30.4696 6.13098 31.169 7.61874 31.4914C8.23677 31.6302 8.86657 31.7119 9.49999 31.7356C11.1926 31.7434 12.8511 31.2673 14.2746 30.3652C15.6981 29.463 16.8254 28.1734 17.52 26.6527C18.2146 25.132 18.4466 23.4454 18.1879 21.7974C17.9292 20.1494 17.1909 18.6108 16.0625 17.3678ZM13.1458 27.5259C11.9855 28.5395 10.464 29.0575 8.91605 28.9658C7.36809 28.8742 5.92047 28.1805 4.89166 27.0374C3.86284 25.8942 3.33709 24.3952 3.43008 22.8701C3.52307 21.345 4.22717 19.9188 5.38749 18.9052C5.52528 18.7721 5.63491 18.6134 5.71001 18.4383C5.78511 18.2632 5.82419 18.0752 5.82499 17.8851V6.59196C5.82499 5.63931 6.2091 4.72569 6.89283 4.05206C7.57655 3.37844 8.50389 3.00001 9.47082 3.00001C10.4378 3.00001 11.3651 3.37844 12.0488 4.05206C12.7325 4.72569 13.1167 5.63931 13.1167 6.59196V18C13.1175 18.1901 13.1565 18.3782 13.2316 18.5533C13.3067 18.7284 13.4164 18.8871 13.5542 19.0201C14.1503 19.5875 14.6168 20.2735 14.9227 21.0324C15.2286 21.7913 15.3668 22.6057 15.3282 23.4214C15.2896 24.2371 15.0749 25.0353 14.6986 25.7629C14.3223 26.4904 13.793 27.1306 13.1458 27.6408V27.5259Z" fill="white"/>
</svg>
